<svg xmlns="http://www.w3.org/2000/svg" viewBox="0 0 721.81 405.96"><title>cow-diagram</title><g id="Layer_2" data-name="Layer 2"><g id="Layer_4" data-name="Layer 4"><g id="chuck"><path d="M442.54,36.74a14.25,14.25,0,0,0-8-2.15c-6.67,0-11.78,4.93-11.78,11s5.11,11.14,11.78,11.14a14.25,14.25,0,0,0,8-2.15V66.67a20.3,20.3,0,0,1-8.87,1.74C419.74,68.41,410,58.2,410,45.61s9.74-22.68,23.67-22.68a20.3,20.3,0,0,1,8.87,1.74Z" fill="#ce003a"/><path d="M447.13,24h12.76V38.48h12.3V24h12.7v82h-12.7V50h-12.3v56H447.13Z" fill="#ce003a"/><path d="M416.7,147.53c-8.1-.16-12.73-5.17-12.55-14.31l.68-35.16,8.52.17-.7,36.47c-.07,3.22,2,5.19,4.2,5.24s4.41-1.86,4.48-5.07L422,98.4l8.49.16-.68,35.15C429.66,142.86,424.88,147.69,416.7,147.53Z" fill="#ce003a"/><path d="M454.13,126.9a9.55,9.55,0,0,0-5.32-1.54,7.42,7.42,0,1,0-.29,14.8,9.52,9.52,0,0,0,5.38-1.33l-.16,8.06a13.62,13.62,0,0,1-5.95,1.05c-9.3-.18-15.68-7.13-15.52-15.54s6.81-15,16.11-14.84a13.53,13.53,0,0,1,5.9,1.28Z" fill="#ce003a"/><path d="M465.56,135.06l-.24,12.48-8.52-.16.56-28.91,8.52.16-.23,12.13,7.75-12,9.73.19-9.41,13.38,9.93,15.55L473,147.69Z" fill="#ce003a"/></g><g id="rump"><path d="M83,47.77h-.48V59.58H68.81V20.07H82.9c7.68,0,18.59.53,18.59,14.51,0,4.24-2.43,7.41-5.72,9.59l9.59,15.41H89.2Zm-.48-16.42v7.84H83.7c2.75,0,4.44-1,4.44-4.13s-2.43-3.71-4.44-3.71Z" fill="#ce003a"/><path d="M125.38,60.4c-11.62,0-18.48-6.76-18.48-19.91V20.07h13.61V42.43c0,3.46,2.31,5.87,4.87,5.87s4.88-2.41,4.88-5.87V20.07h13.61V40.49C143.87,53.64,137,60.4,125.38,60.4Z" fill="#ce003a"/><path d="M98.83,101.06H88v-32h12.13l7.72,10.51,7.42-10.51h11.78v32h-10.8V92.83l.34-8.87L108.13,95.1h-1.07L98.48,83.92l.35,8.91Z" fill="#ce003a"/><path d="M138,87.73v36.83h-8.88V69.08h9.46c4.85,0,11.68.31,11.68,9.5,0,7.61-7.14,9.15-11.68,9.15Zm0-11.37V80.8h1.37c1.53,0,2.32-.52,2.32-2.15,0-2.05-1.2-2.29-2.32-2.29Z" fill="#ce003a"/></g><g id="flank"><path d="M186.93,158.57h17.16v5.92H193.64v6h9.17v5.92h-9.17v32.2h-6.71Z" fill="#ce003a"/><path d="M213.59,158.57v51.21H282v6.08H206.88V158.57Z" fill="#ce003a"/><path d="M233.12,202.7H222.8l-1.39,3.85H215l10-25.84h6.1l10,25.84H234.5Zm-1.73-4.85L228,188.4l-3.43,9.45Z" fill="#ce003a"/><path d="M248.3,191.13v15.42h-6.17V180.71h5.93l11.22,15.45V180.71h6.16v25.84h-5.89Z" fill="#ce003a"/><path d="M272.89,194.84v11.71h-6.17V180.71h6.17v11.36l8-11.36H288L278.88,193l10,13.58h-7.83Z" fill="#ce003a"/></g><path d="M149.23,124.64c-1.62,5.52-4.89,12.83-8.92,21.31C87.92,131,56.37,55.38,49,41c2.79-8.38-26.86-8.38-26.86,33.64,0,40.38,29.27,110.15-17.8,155-2.88-.6-.87-2.16,4.2-10.28C49.29,154.05-14.44,68.2,29.21,28c28.24-26,72-23.16,75-25,22.06-.22,25.72,1.8,44.62,4.32C160.7,52.7,154.69,106,149.23,124.64Z" fill="none" stroke="#e2ff26" stroke-linecap="round" stroke-linejoin="round" stroke-width="6"/><path d="M302.93,154.94c-138-2.9-151.18-5.73-162.62-9,4-8.48,7.3-15.79,8.92-21.31,5.46-18.62,11.47-71.94-.44-117.3,20.5,2.74,59,6.09,158.3,7.82C307.49,47.4,307.34,110.92,302.93,154.94Z" fill="none" stroke="#e2ff26" stroke-linecap="round" stroke-linejoin="round" stroke-width="6"/><path d="M104.45,379.81c10.82,15,9.48,14.92-2,14.76-2.76,4.05,10.47,8.39-16.5,8.39-26.08,0-20.44-.34-24.74-6.51-6.34-9.08,2.46-9.73-.29-19.39s-6.5-8.58-9.55-10.86c-2.55-1.9,9.35-40.3-3-88.83-1.67-24.3-4.37-5.85,2.75-29.53,3.16-27.39,7.68-26.43-.58-50.79-13.92-41-14-118-13.6-119.8C36.88,55.68,47.33,45.91,49,41,56.37,55.38,87.92,131,140.31,146c-16.75,35.21-45,49-28.51,113.21-6.21,9.4-24.4,57.35-19.35,78.54,0,30.48-.36,19.93,7.66,32.85C102.48,374.37,99.33,372.69,104.45,379.81Z" fill="none" stroke="#e2ff26" stroke-linecap="round" stroke-linejoin="round" stroke-width="6"/><path d="M603.25,138.44c-14.11-.08-61,19.69-119.38,19.1,16.74-49.65,27.8-109.49,31.73-132.6C536,28,558,30.56,573.4,31,577.54,63,587.94,102.31,603.25,138.44Z" fill="none" stroke="#e2ff26" stroke-linecap="round" stroke-linejoin="round" stroke-width="6"/><path d="M515.6,24.94c-3.93,23.11-15,83-31.73,132.6-57.4-.66-31.48-.27-88.39-1,0,0,9.78-117.36,9.78-140.33C498.2,16.62,443.19,14.22,515.6,24.94Z" fill="none" stroke="#e2ff26" stroke-linecap="round" stroke-linejoin="round" stroke-width="6"/><path d="M405.26,16.19c0,23-9.78,140.33-9.78,140.33-26.47-.37-62.18-1-92.55-1.58,4.41-44,4.56-107.54,4.16-139.78C334.78,15.65,367.19,16,405.26,16.19Z" fill="none" stroke="#e2ff26" stroke-linecap="round" stroke-linejoin="round" stroke-width="6"/><path d="M483.87,157.54c-5,14.9-10.74,10.62-17.22,26.73a684.9,684.9,0,0,1-42.19,87.5c.34-25.82-.16-16.55-49.27-36.81-33.31-13.73-58.35,2.51-94.44,5,11.83-31.18,18.49-48.29,22.18-85.06C376.18,156.47,436.46,157,483.87,157.54Z" fill="none" stroke="#e2ff26" stroke-linecap="round" stroke-linejoin="round" stroke-width="6"/><path d="M703.07,155.39c-6.63,2.9-7.19,1.69-9.4,2.16-10.85,2.3-15-2.4-18.38-4.49-6.37-3.94-41.47-10.25-41.53-10.27-7.47-2.27-16-8.15-26-4.34h-4.47C587.94,102.31,577.54,63,573.4,31c59.51,1.89,47.35-11.7,63-16.72,8.28-2.65,17,5.72,19.1,5.22,5.17-1.3,8-6.63,10-7,3.41,2.72,5.1-2.77,8.39-3,4.82,4.15-13.51,14.7-13.89,17.38,1.13,1.48.89,4.5,4.2,9.83,1.3,2.09,3.2,3.72,4.63,5.65.8,1.07,1.23,2.38,2,3.46,30.73,26.89,19.14,42.86,22,48.34.13.26,21.17,26.42,23.73,30.67C721.93,133.81,717.81,148.93,703.07,155.39Z" fill="none" stroke="#e2ff26" stroke-linecap="round" stroke-linejoin="round" stroke-width="6"/><path d="M302.93,154.94c-3.69,36.77-10.35,53.88-22.18,85.06-52.73,3.68-90.91-27.89-99.09-28.24,4.11-49.1-31-48.08-25.59-62.7C179.35,151.65,236.66,153.54,302.93,154.94Z" fill="none" stroke="#e2ff26" stroke-linecap="round" stroke-linejoin="round" stroke-width="6"/><path d="M181.66,211.76c-5.64-.24-10.72,5.26-25.11,20.9-4.1,4.44-6.61,4.35-8,6.36-1.8,2.68,1.58,10.2,0,13.31-1,1.92-2.24,1.38-4.05,2.32-.94.48-1.43,1.32-2.75,1.44-6-5.94-.26-13.72-8.4-11.42-12.81,3.6-13.8.81-15.77,2.3-2.93,2.24,2.14,10.57-4.34,10.57-.34.1-.85.66-1.48,1.62C95.35,195,123.55,181.16,140.31,146a95.77,95.77,0,0,0,15.76,3.11C150.68,163.68,185.77,162.66,181.66,211.76Z" fill="none" stroke="#e2ff26" stroke-linecap="round" stroke-linejoin="round" stroke-width="6"/><path d="M458.24,306.59c-2.34,7.81-3.56,54-1.73,59.61.95,3,2.39,3.75,3.76,5.95,1,1.65,1.23,4,2.31,5.63,11.86,18.13,21.75,24.61,5.79,24.61-27.29,0-25,.39-28.65-4.49-1.58-2.13-4.12-3.61-5.21-6.22-6.75-16.23,6.41-17.58-4.19-25-1.62-1.14-3.14-1.17-3.91-4.35,0-3.91-1.58-3.35-2.32-6.51,0-10,4.34-25.16,4.34-39.64,0-31.61-4.33-12-4-44.38a684.26,684.26,0,0,0,42.19-87.5c6.48-16.11,12.2-11.83,17.22-26.73,9,.1,17.7-.29,26.05-1,10.4,26,14.45,73.24,14.45,73.24-2.14,1-1.88,1.49-14.18,9.26-22,13.89-35.82,17-37,18.67-2.18,2.87-6.28,23.6-6.37,23.87S459.42,302.67,458.24,306.59Z" fill="none" stroke="#e2ff26" stroke-linecap="round" stroke-linejoin="round" stroke-width="6"/><path d="M604,140.13c-14.15,7.26-16.17,20.9-34.17,40.43-11,11.94-11.94,11.91-14.61,15.91-6.93,10.41-6.43,28.17-18.52,31.55-3.38.94-5.22-1.52-12.3,1.74,0,0-4-47.22-14.45-73.24C564,151.82,601.26,133.79,604,140.13Z" fill="none" stroke="#e2ff26" stroke-linecap="round" stroke-linejoin="round" stroke-width="6"/><g id="sirloin"><path d="M200.31,35.48A36.48,36.48,0,0,0,187.92,33c-5.64-.14-8.34,1.39-8.48,3.94S182.39,41.75,189,46C198.59,52.58,203,54.13,203,63.7s-11.63,15.24-25.27,14.9c-5.12-.12-12.29-1.1-15.7-2.36L162.76,65a50.6,50.6,0,0,0,15.49,3.08c5.47.14,8.72-2,8.86-4.59s-3.37-5.19-10.34-9.66C166,47,162.94,42.79,163.28,36.53c.42-7.57,8.11-14.46,24.53-14a48.27,48.27,0,0,1,13.2,2Z" fill="#ce003a"/><path d="M211.12,24.16l15.46.38-3,54.33-15.46-.39Z" fill="#ce003a"/><path d="M248.35,62h-.17l-1,17.48-15.46-.39,3-54.33,18.07.45c14.5.36,28.1,4.71,27.3,19.13-.44,8-7.07,13.17-15.3,15.74l15.93,20.23-18.5-.46Zm1.23-25.34-.84,15.14,4,.1c6.86.17,11.8-2.62,12.08-7.72.26-4.73-3.69-7.24-11.42-7.43Z" fill="#ce003a"/><path d="M172.66,86.63l-1.58,42.61,43.28.54-.44,11.73-53.67-.93,2-54.33Z" fill="#ce003a"/><path d="M216.66,106.63a20.23,20.23,0,0,1-21.07,19.07c-11.38-.34-19.82-9.41-19.32-20.29s9.73-19.31,21.11-19S217.15,95.8,216.66,106.63Zm-29.84-.85a9.46,9.46,0,0,0,9.22,10,9.81,9.81,0,0,0,10.06-9.45,9.42,9.42,0,0,0-9.18-10A9.79,9.79,0,0,0,186.82,105.78Z" fill="#ce003a"/><path d="M222.33,89.13l10.39.38-2,54.33-10.39-.38Z" fill="#ce003a"/><path d="M247.79,112l-1.2,32.41-10.4-.38,2-54.33,10,.37,17.71,33.18,1.21-32.48,10.39.38-2,54.33-9.93-.37Z" fill="#ce003a"/></g><g id="rib"><path d="M322.61,105.12h-.11l-1.17,37.23-9.94-.31L315,26.32l11.62.36c9.34.29,17.95,9.1,17,39.81-.54,17.07-5,28.26-10.35,34L342.91,143,331,142.65Zm1.57-54-1,32.26,2.58.08c4.41.14,7.68-6,8-16.83.31-10.08-2.16-15.28-7.13-15.44Z" fill="#ce003a"/><path d="M350,27.41l9.94.31-3.61,115.72-9.95-.31Z" fill="#ce003a"/><path d="M378.06,144.12l-16.49-.52,3.62-115.72,15.31.48c9.5.3,12.27,13.58,11.73,30.8-.28,9-2.23,17.94-5.44,23.74,3.89,6.18,5.9,17.11,5.52,29.52C391.79,129,387.06,144.4,378.06,144.12Zm-3.61-93.9-.78,25,2.79.09c4.14.13,6.51-4.14,6.76-12.36.25-7.92-1-12.46-5.81-12.61Zm-1.38,44.05-.86,27.62,3.46.1c4.92.16,6.49-5.23,6.74-13.29.29-9.47-1.74-14.19-6-14.32Z" fill="#ce003a"/></g><g id="neck"><path d="M527.59,67.35v13H516.77v-31H527L537,62V49.29h10.81v31h-10Z" fill="#ce003a"/><path d="M551.31,49.29h20.56v9.77h-9.74v1.88h8.62v7.7h-8.62v1.91H572.2v9.78H551.31Z" fill="#ce003a"/><path d="M537.36,112.57a11.71,11.71,0,0,0-6.62-1.65c-4.81,0-8.58,3.31-8.58,7.7s3.77,7.81,8.58,7.81a11.71,11.71,0,0,0,6.62-1.65v12.67a17.47,17.47,0,0,1-7.55,1.34c-12.57,0-21.1-9-21.1-20.17s8.53-20.06,21.1-20.06a17.05,17.05,0,0,1,7.55,1.4Z" fill="#ce003a"/><path d="M554.74,122.35V138H541.29V99.39h13.45v15.2l8.17-15.2h15.35l-10.85,17.84L579.76,138H562.91Z" fill="#ce003a"/></g><g id="round"><path d="M61.64,116.59l-.44.12,3,10.78L51.7,131,41.59,94.93l12.86-3.6c7-2,17.11-4.28,20.69,8.49,1.08,3.87-.33,7.39-2.77,10.21l12.69,11.62-14.74,4.13ZM57,101.72l2,7.15,1.06-.29c2.52-.71,3.82-2,3-4.91s-3.18-2.76-5-2.25Z" fill="#ce003a"/><path d="M73.53,224.26c-7.87,0-12.52-4.58-12.52-13.48V196.94h9.22v15.15c0,2.34,1.56,4,3.3,4s3.3-1.63,3.3-4V196.94h9.23v13.84C86.06,219.68,81.41,224.26,73.53,224.26Z" fill="#ce003a"/><path d="M82.23,242.75v11.07H73V227.35H81.7l8.55,10.86V227.35h9.23v26.47H91Z" fill="#ce003a"/><path d="M62,256.76h9.26c7.91,0,14.94,3.08,14.94,13.2,0,10.28-6.64,13.26-14.59,13.26H62Zm9.22,18.06h1c2.69,0,4.75-1.42,4.75-4.86s-2.06-4.76-4.75-4.79h-1Z" fill="#ce003a"/><path d="M119,159.32c0,18.43-16,33.35-35.78,33.35-19.94,0-35.86-14.92-35.86-33.35s15.92-33.18,35.86-33.18C103,126.14,119,141,119,159.32Zm-49.85.17c0,7.45,6.2,13.15,14.07,13.15s14-5.78,14-13.15c0-7.71-6.2-13.33-14-13.33S69.18,151.78,69.18,159.49Z" fill="#ce003a"/></g><g id="plate"><path d="M320.87,213.15V225H309.13V180.84h12.51c6.41,0,15.44.53,15.44,16.45,0,13.2-9.44,15.86-15.44,15.86Zm0-19.71v7.7h1.8c2,0,3.07-.89,3.07-3.73,0-3.55-1.58-4-3.07-4Z" fill="#ce003a"/><path d="M350.3,180.84v30.24h10.88V225H338.56V180.84Z" fill="#ce003a"/><path d="M387.24,220.43H376.45L375.27,225H363.12l13.23-44.14h11.47L401.1,225H388.36Zm-2.67-11L382,198.89l-2.71,10.59Z" fill="#ce003a"/><path d="M403.49,176.75H309.13V162.84H444.79v13.91H415.23V225H403.49Z" fill="#ce003a"/><path d="M419.13,180.84h36.41v13.91H430.87v2.66h17.61v11H430.87v2.72H441.8V225H419.13Z" fill="#ce003a"/></g><g id="shank"><path d="M491.62,175.51a9.28,9.28,0,0,0-3.62-.76c-1.63,0-2.38.56-2.38,1.43s.93,1.63,2.89,3c2.88,2.18,4.34,3.64,4.34,6,0,3.36-3.11,5.34-7.05,5.34a15.3,15.3,0,0,1-4.57-.67l0-3.87a12.48,12.48,0,0,0,4.51.93c1.58,0,2.48-.78,2.48-1.65s-1.05-1.76-3.13-3.24c-3.21-2.28-4.16-3.69-4.16-5.85,0-2.6,2.1-5,6.84-5a12,12,0,0,1,3.84.58Z" fill="#ce003a"/><path d="M494.55,171.52H499v6.72h6.22v-6.72h4.46v18.71h-4.46v-7.95H499v7.95h-4.47Z" fill="#ce003a"/><path d="M484.39,230.35H467.9l-2.21,6.14H455.45l16-41.27h9.74l16,41.27H486.6Zm-2.77-7.74L476.2,207.5l-5.48,15.11Z" fill="#ce003a"/><path d="M496.18,201.05,496,212.21l-4.46-.06.27-18.72,4.29.07,8,11.3.16-11.19,4.47.07-.27,18.71-4.26-.06Z" fill="#ce003a"/><path d="M502.13,223.51l.05,8.47-4.47,0-.1-18.72,4.46,0,.05,8.23,5.72-8.26,5.17,0-6.55,8.92,7.33,9.79-5.67,0Z" fill="#ce003a"/></g></g></g></svg>